<mxfile host="Electron" modified="2023-12-22T11:51:16.056Z" agent="Mozilla/5.0 (Macintosh; Intel Mac OS X 10_15_7) AppleWebKit/537.36 (KHTML, like Gecko) draw.io/22.1.11 Chrome/114.0.5735.289 Electron/25.9.8 Safari/537.36" etag="KZ8S65Om3V6kb2u8mXFl" version="22.1.11" type="device">
  <diagram id="2xOe5xubepqIjJ3LcJC1" name="Page-1">
    <mxGraphModel dx="1867" dy="175" grid="1" gridSize="10" guides="1" tooltips="1" connect="1" arrows="1" fold="1" page="1" pageScale="1" pageWidth="827" pageHeight="1169" math="0" shadow="0">
      <root>
        <mxCell id="0" />
        <mxCell id="1" parent="0" />
        <mxCell id="ZT_hO3a8LjF3KQZG9V5w-110" value="" style="rounded=0;whiteSpace=wrap;html=1;fillColor=none;dashed=1;" parent="1" vertex="1">
          <mxGeometry x="1814.57" y="2416.26" width="560.43" height="103.25" as="geometry" />
        </mxCell>
        <mxCell id="-UdpKEmKfV3WiR_RU4ag-10" value="" style="rounded=0;whiteSpace=wrap;html=1;fillColor=none;dashed=1;" parent="1" vertex="1">
          <mxGeometry x="845" y="2206" width="625.43" height="297" as="geometry" />
        </mxCell>
        <mxCell id="ZT_hO3a8LjF3KQZG9V5w-55" value="" style="rounded=0;whiteSpace=wrap;html=1;fillColor=none;dashed=1;" parent="1" vertex="1">
          <mxGeometry x="1395.43" y="1868" width="538.57" height="100" as="geometry" />
        </mxCell>
        <mxCell id="6d00vNp0HRFiDjTd-FTX-48" value="" style="rounded=0;whiteSpace=wrap;html=1;fillColor=none;dashed=1;" parent="1" vertex="1">
          <mxGeometry x="872" y="1393" width="220" height="265.5" as="geometry" />
        </mxCell>
        <mxCell id="6d00vNp0HRFiDjTd-FTX-49" value="&lt;div style=&quot;&quot;&gt;&lt;span style=&quot;caret-color: rgb(0, 0, 0); font-family: sans-serif; font-size: 13.12px; font-weight: 700; background-color: rgb(255, 255, 255);&quot;&gt;&amp;lt;&amp;lt;Cube&amp;gt;&amp;gt;&lt;/span&gt;&lt;span style=&quot;background-color: initial;&quot;&gt;&lt;b&gt;&lt;br&gt;&lt;/b&gt;&lt;/span&gt;&lt;/div&gt;&lt;div style=&quot;&quot;&gt;&lt;span style=&quot;caret-color: rgb(0, 0, 0); font-family: sans-serif; font-size: 13.12px; font-weight: 700; background-color: rgb(255, 255, 255);&quot;&gt;OpenFoodFactsCube1&lt;/span&gt;&lt;/div&gt;" style="rounded=0;whiteSpace=wrap;html=1;snapToPoint=1;points=[[0.1,0],[0.2,0],[0.3,0],[0.4,0],[0.5,0],[0.6,0],[0.7,0],[0.8,0],[0.9,0],[0,0.1],[0,0.3],[0,0.5],[0,0.7],[0,0.9],[0.1,1],[0.2,1],[0.3,1],[0.4,1],[0.5,1],[0.6,1],[0.7,1],[0.8,1],[0.9,1],[1,0.1],[1,0.3],[1,0.5],[1,0.7],[1,0.9]];fontFamily=Helvetica;fontSize=14;fillColor=none;align=center;" parent="1" vertex="1">
          <mxGeometry x="1220.29" y="1573.5" width="218.28" height="42" as="geometry" />
        </mxCell>
        <mxCell id="6d00vNp0HRFiDjTd-FTX-50" value="&lt;span style=&quot;border-color: var(--border-color);&quot;&gt;+ ProductCount : int&lt;br&gt;+ VersionCount : int&lt;br style=&quot;border-color: var(--border-color);&quot;&gt;&lt;/span&gt;" style="rounded=0;whiteSpace=wrap;html=1;snapToPoint=1;points=[[0.1,0],[0.2,0],[0.3,0],[0.4,0],[0.5,0],[0.6,0],[0.7,0],[0.8,0],[0.9,0],[0,0.1],[0,0.3],[0,0.5],[0,0.7],[0,0.9],[0.1,1],[0.2,1],[0.3,1],[0.4,1],[0.5,1],[0.6,1],[0.7,1],[0.8,1],[0.9,1],[1,0.1],[1,0.3],[1,0.5],[1,0.7],[1,0.9]];fontFamily=Helvetica;fontSize=14;fillColor=none;" parent="1" vertex="1">
          <mxGeometry x="1220.29" y="1615.5" width="218.28" height="49.5" as="geometry" />
        </mxCell>
        <mxCell id="6d00vNp0HRFiDjTd-FTX-51" value="&lt;div style=&quot;&quot;&gt;&lt;span style=&quot;caret-color: rgb(0, 0, 0); font-family: sans-serif; font-size: 13.12px; background-color: rgb(255, 255, 255);&quot;&gt;&lt;b&gt;&amp;lt;&amp;lt;Level&amp;gt;&amp;gt;&lt;/b&gt;&lt;/span&gt;&lt;/div&gt;&lt;b&gt;MonthModification&lt;/b&gt;" style="rounded=0;whiteSpace=wrap;html=1;snapToPoint=1;points=[[0.1,0],[0.2,0],[0.3,0],[0.4,0],[0.5,0],[0.6,0],[0.7,0],[0.8,0],[0.9,0],[0,0.1],[0,0.3],[0,0.5],[0,0.7],[0,0.9],[0.1,1],[0.2,1],[0.3,1],[0.4,1],[0.5,1],[0.6,1],[0.7,1],[0.8,1],[0.9,1],[1,0.1],[1,0.3],[1,0.5],[1,0.7],[1,0.9]];fontFamily=Helvetica;fontSize=14;fillColor=none;align=center;" parent="1" vertex="1">
          <mxGeometry x="877" y="1573.5" width="210" height="42" as="geometry" />
        </mxCell>
        <mxCell id="6d00vNp0HRFiDjTd-FTX-52" value="&lt;span style=&quot;border-color: var(--border-color);&quot;&gt;+ date_modification&amp;nbsp;: datetime&lt;br style=&quot;border-color: var(--border-color);&quot;&gt;&lt;/span&gt;" style="rounded=0;whiteSpace=wrap;html=1;snapToPoint=1;points=[[0.1,0],[0.2,0],[0.3,0],[0.4,0],[0.5,0],[0.6,0],[0.7,0],[0.8,0],[0.9,0],[0,0.1],[0,0.3],[0,0.5],[0,0.7],[0,0.9],[0.1,1],[0.2,1],[0.3,1],[0.4,1],[0.5,1],[0.6,1],[0.7,1],[0.8,1],[0.9,1],[1,0.1],[1,0.3],[1,0.5],[1,0.7],[1,0.9]];fontFamily=Helvetica;fontSize=14;fillColor=none;" parent="1" vertex="1">
          <mxGeometry x="877" y="1615.5" width="210" height="38" as="geometry" />
        </mxCell>
        <mxCell id="6d00vNp0HRFiDjTd-FTX-53" value="&lt;div style=&quot;&quot;&gt;&lt;div style=&quot;border-color: var(--border-color);&quot;&gt;&lt;b&gt;&amp;lt;&amp;lt;Level&amp;gt;&amp;gt;&lt;span style=&quot;border-color: var(--border-color); background-color: initial;&quot;&gt;&lt;span style=&quot;border-color: var(--border-color);&quot;&gt;&lt;br style=&quot;border-color: var(--border-color);&quot;&gt;&lt;/span&gt;&lt;/span&gt;&lt;/b&gt;&lt;/div&gt;&lt;div style=&quot;border-color: var(--border-color);&quot;&gt;&lt;font style=&quot;border-color: var(--border-color);&quot; face=&quot;sans-serif&quot;&gt;&lt;span style=&quot;border-color: var(--border-color); font-size: 13.12px; background-color: rgb(255, 255, 255);&quot;&gt;&lt;b style=&quot;border-color: var(--border-color);&quot;&gt;Pseudo&lt;/b&gt;&lt;/span&gt;&lt;/font&gt;&lt;/div&gt;&lt;/div&gt;" style="rounded=0;whiteSpace=wrap;html=1;snapToPoint=1;points=[[0.1,0],[0.2,0],[0.3,0],[0.4,0],[0.5,0],[0.6,0],[0.7,0],[0.8,0],[0.9,0],[0,0.1],[0,0.3],[0,0.5],[0,0.7],[0,0.9],[0.1,1],[0.2,1],[0.3,1],[0.4,1],[0.5,1],[0.6,1],[0.7,1],[0.8,1],[0.9,1],[1,0.1],[1,0.3],[1,0.5],[1,0.7],[1,0.9]];fontFamily=Helvetica;fontSize=14;fillColor=none;align=center;" parent="1" vertex="1">
          <mxGeometry x="2010.5700000000002" y="1573.5" width="218.85" height="42" as="geometry" />
        </mxCell>
        <mxCell id="6d00vNp0HRFiDjTd-FTX-54" value="+ pseudo : java.lang.String" style="rounded=0;whiteSpace=wrap;html=1;snapToPoint=1;points=[[0.1,0],[0.2,0],[0.3,0],[0.4,0],[0.5,0],[0.6,0],[0.7,0],[0.8,0],[0.9,0],[0,0.1],[0,0.3],[0,0.5],[0,0.7],[0,0.9],[0.1,1],[0.2,1],[0.3,1],[0.4,1],[0.5,1],[0.6,1],[0.7,1],[0.8,1],[0.9,1],[1,0.1],[1,0.3],[1,0.5],[1,0.7],[1,0.9]];fontFamily=Helvetica;fontSize=14;fillColor=none;" parent="1" vertex="1">
          <mxGeometry x="2010.5700000000002" y="1615.5" width="218.85" height="45" as="geometry" />
        </mxCell>
        <mxCell id="6d00vNp0HRFiDjTd-FTX-55" value="" style="endArrow=none;html=1;rounded=0;exitX=1;exitY=0.5;exitDx=0;exitDy=0;fontStyle=1;entryX=0;entryY=0.5;entryDx=0;entryDy=0;" parent="1" source="6d00vNp0HRFiDjTd-FTX-49" target="6d00vNp0HRFiDjTd-FTX-53" edge="1">
          <mxGeometry width="50" height="50" relative="1" as="geometry">
            <mxPoint x="1192.29" y="1713.63" as="sourcePoint" />
            <mxPoint x="1990" y="1590" as="targetPoint" />
            <Array as="points" />
          </mxGeometry>
        </mxCell>
        <mxCell id="6d00vNp0HRFiDjTd-FTX-56" value="" style="endArrow=none;html=1;rounded=0;exitX=1;exitY=0.5;exitDx=0;exitDy=0;entryX=0;entryY=0.5;entryDx=0;entryDy=0;" parent="1" source="6d00vNp0HRFiDjTd-FTX-51" target="6d00vNp0HRFiDjTd-FTX-49" edge="1">
          <mxGeometry width="50" height="50" relative="1" as="geometry">
            <mxPoint x="1202.29" y="1780.5" as="sourcePoint" />
            <mxPoint x="1270.29" y="1773.5" as="targetPoint" />
          </mxGeometry>
        </mxCell>
        <mxCell id="6d00vNp0HRFiDjTd-FTX-57" value="&lt;font style=&quot;font-size: 14px;&quot;&gt;1..1&lt;/font&gt;" style="text;html=1;align=center;verticalAlign=middle;resizable=0;points=[];autosize=1;strokeColor=none;fillColor=none;" parent="1" vertex="1">
          <mxGeometry x="1968.64" y="1569" width="50" height="30" as="geometry" />
        </mxCell>
        <mxCell id="6d00vNp0HRFiDjTd-FTX-58" value="&lt;font style=&quot;font-size: 14px;&quot;&gt;0..*&lt;/font&gt;" style="text;html=1;align=center;verticalAlign=middle;resizable=0;points=[];autosize=1;strokeColor=none;fillColor=none;" parent="1" vertex="1">
          <mxGeometry x="1434.5700000000002" y="1569.5" width="40" height="30" as="geometry" />
        </mxCell>
        <mxCell id="6d00vNp0HRFiDjTd-FTX-59" value="&lt;font style=&quot;font-size: 14px;&quot;&gt;0..*&lt;/font&gt;" style="text;html=1;align=center;verticalAlign=middle;resizable=0;points=[];autosize=1;strokeColor=none;fillColor=none;" parent="1" vertex="1">
          <mxGeometry x="1185.43" y="1569.5" width="40" height="30" as="geometry" />
        </mxCell>
        <mxCell id="6d00vNp0HRFiDjTd-FTX-60" value="&lt;font style=&quot;font-size: 14px;&quot;&gt;1..1&lt;/font&gt;" style="text;html=1;align=center;verticalAlign=middle;resizable=0;points=[];autosize=1;strokeColor=none;fillColor=none;" parent="1" vertex="1">
          <mxGeometry x="1081.5700000000002" y="1570.5" width="50" height="30" as="geometry" />
        </mxCell>
        <mxCell id="6d00vNp0HRFiDjTd-FTX-61" value="&lt;div style=&quot;&quot;&gt;&lt;span style=&quot;caret-color: rgb(0, 0, 0); font-family: sans-serif; font-size: 13.12px; font-weight: 700; background-color: rgb(255, 255, 255);&quot;&gt;&amp;lt;&amp;lt;Level&amp;gt;&amp;gt;&lt;/span&gt;&lt;span style=&quot;background-color: initial;&quot;&gt;&lt;b&gt;&lt;br&gt;&lt;/b&gt;&lt;/span&gt;&lt;/div&gt;&lt;div style=&quot;&quot;&gt;&lt;font face=&quot;sans-serif&quot;&gt;&lt;span style=&quot;font-size: 13.12px; background-color: rgb(255, 255, 255);&quot;&gt;&lt;b&gt;Barcode&lt;/b&gt;&lt;/span&gt;&lt;/font&gt;&lt;/div&gt;" style="rounded=0;whiteSpace=wrap;html=1;snapToPoint=1;points=[[0.1,0],[0.2,0],[0.3,0],[0.4,0],[0.5,0],[0.6,0],[0.7,0],[0.8,0],[0.9,0],[0,0.1],[0,0.3],[0,0.5],[0,0.7],[0,0.9],[0.1,1],[0.2,1],[0.3,1],[0.4,1],[0.5,1],[0.6,1],[0.7,1],[0.8,1],[0.9,1],[1,0.1],[1,0.3],[1,0.5],[1,0.7],[1,0.9]];fontFamily=Helvetica;fontSize=14;fillColor=none;align=center;" parent="1" vertex="1">
          <mxGeometry x="1223.04" y="1387.5" width="212.78" height="42" as="geometry" />
        </mxCell>
        <mxCell id="6d00vNp0HRFiDjTd-FTX-62" value="&lt;span style=&quot;border-color: var(--border-color);&quot;&gt;+ barcode : java.lang.String&lt;br style=&quot;border-color: var(--border-color);&quot;&gt;&lt;/span&gt;" style="rounded=0;whiteSpace=wrap;html=1;snapToPoint=1;points=[[0.1,0],[0.2,0],[0.3,0],[0.4,0],[0.5,0],[0.6,0],[0.7,0],[0.8,0],[0.9,0],[0,0.1],[0,0.3],[0,0.5],[0,0.7],[0,0.9],[0.1,1],[0.2,1],[0.3,1],[0.4,1],[0.5,1],[0.6,1],[0.7,1],[0.8,1],[0.9,1],[1,0.1],[1,0.3],[1,0.5],[1,0.7],[1,0.9]];fontFamily=Helvetica;fontSize=14;fillColor=none;" parent="1" vertex="1">
          <mxGeometry x="1223.04" y="1429.5" width="212.78" height="48" as="geometry" />
        </mxCell>
        <mxCell id="6d00vNp0HRFiDjTd-FTX-63" value="&lt;font style=&quot;font-size: 18px;&quot;&gt;PRODUCT DIMENSION&lt;/font&gt;" style="text;html=1;align=center;verticalAlign=middle;resizable=0;points=[];autosize=1;strokeColor=none;fillColor=none;" parent="1" vertex="1">
          <mxGeometry x="1219.43" y="1351.5" width="220" height="40" as="geometry" />
        </mxCell>
        <mxCell id="6d00vNp0HRFiDjTd-FTX-64" value="&lt;div style=&quot;&quot;&gt;&lt;b&gt;&lt;span style=&quot;caret-color: rgb(0, 0, 0); font-family: sans-serif; font-size: 13.12px; background-color: rgb(255, 255, 255);&quot;&gt;&amp;lt;&amp;lt;Level&amp;gt;&amp;gt;&lt;/span&gt;&lt;/b&gt;&lt;/div&gt;&lt;b style=&quot;border-color: var(--border-color);&quot;&gt;YearModification&lt;/b&gt;" style="rounded=0;whiteSpace=wrap;html=1;snapToPoint=1;points=[[0.1,0],[0.2,0],[0.3,0],[0.4,0],[0.5,0],[0.6,0],[0.7,0],[0.8,0],[0.9,0],[0,0.1],[0,0.3],[0,0.5],[0,0.7],[0,0.9],[0.1,1],[0.2,1],[0.3,1],[0.4,1],[0.5,1],[0.6,1],[0.7,1],[0.8,1],[0.9,1],[1,0.1],[1,0.3],[1,0.5],[1,0.7],[1,0.9]];fontFamily=Helvetica;fontSize=14;fillColor=none;align=center;" parent="1" vertex="1">
          <mxGeometry x="876.5700000000002" y="1398.5" width="210" height="42" as="geometry" />
        </mxCell>
        <mxCell id="6d00vNp0HRFiDjTd-FTX-65" value="&lt;span style=&quot;border-color: var(--border-color);&quot;&gt;&lt;span style=&quot;border-color: var(--border-color);&quot;&gt;+ date_modification&amp;nbsp;: datetime&lt;br style=&quot;border-color: var(--border-color);&quot;&gt;&lt;/span&gt;&lt;/span&gt;" style="rounded=0;whiteSpace=wrap;html=1;snapToPoint=1;points=[[0.1,0],[0.2,0],[0.3,0],[0.4,0],[0.5,0],[0.6,0],[0.7,0],[0.8,0],[0.9,0],[0,0.1],[0,0.3],[0,0.5],[0,0.7],[0,0.9],[0.1,1],[0.2,1],[0.3,1],[0.4,1],[0.5,1],[0.6,1],[0.7,1],[0.8,1],[0.9,1],[1,0.1],[1,0.3],[1,0.5],[1,0.7],[1,0.9]];fontFamily=Helvetica;fontSize=14;fillColor=none;" parent="1" vertex="1">
          <mxGeometry x="876.5700000000002" y="1440.5" width="210" height="44.5" as="geometry" />
        </mxCell>
        <mxCell id="6d00vNp0HRFiDjTd-FTX-66" value="" style="endArrow=none;html=1;rounded=0;entryX=0.5;entryY=0;entryDx=0;entryDy=0;exitX=0.5;exitY=1;exitDx=0;exitDy=0;" parent="1" source="6d00vNp0HRFiDjTd-FTX-65" target="6d00vNp0HRFiDjTd-FTX-51" edge="1">
          <mxGeometry width="50" height="50" relative="1" as="geometry">
            <mxPoint x="1022.4300000000001" y="1525" as="sourcePoint" />
            <mxPoint x="1002.4300000000001" y="1555" as="targetPoint" />
          </mxGeometry>
        </mxCell>
        <mxCell id="6d00vNp0HRFiDjTd-FTX-67" value="&lt;font style=&quot;font-size: 14px;&quot;&gt;0..*&lt;/font&gt;" style="text;html=1;align=center;verticalAlign=middle;resizable=0;points=[];autosize=1;strokeColor=none;fillColor=none;" parent="1" vertex="1">
          <mxGeometry x="975.4300000000001" y="1481.5" width="40" height="30" as="geometry" />
        </mxCell>
        <mxCell id="6d00vNp0HRFiDjTd-FTX-68" value="&lt;font style=&quot;font-size: 14px;&quot;&gt;1..1&lt;/font&gt;" style="text;html=1;align=center;verticalAlign=middle;resizable=0;points=[];autosize=1;strokeColor=none;fillColor=none;" parent="1" vertex="1">
          <mxGeometry x="973.4300000000001" y="1548.5" width="50" height="30" as="geometry" />
        </mxCell>
        <mxCell id="6d00vNp0HRFiDjTd-FTX-69" value="" style="endArrow=none;html=1;rounded=0;exitX=0.5;exitY=1;exitDx=0;exitDy=0;entryX=0.5;entryY=0;entryDx=0;entryDy=0;fontStyle=1" parent="1" source="6d00vNp0HRFiDjTd-FTX-62" target="6d00vNp0HRFiDjTd-FTX-49" edge="1">
          <mxGeometry width="50" height="50" relative="1" as="geometry">
            <mxPoint x="1566.15" y="1400.5" as="sourcePoint" />
            <mxPoint x="1773.15" y="1557.5" as="targetPoint" />
          </mxGeometry>
        </mxCell>
        <mxCell id="6d00vNp0HRFiDjTd-FTX-70" value="&lt;font style=&quot;font-size: 14px;&quot;&gt;1..1&lt;/font&gt;" style="text;html=1;align=center;verticalAlign=middle;resizable=0;points=[];autosize=1;strokeColor=none;fillColor=none;" parent="1" vertex="1">
          <mxGeometry x="1320.29" y="1477.5" width="50" height="30" as="geometry" />
        </mxCell>
        <mxCell id="6d00vNp0HRFiDjTd-FTX-71" value="&lt;font style=&quot;font-size: 14px;&quot;&gt;0..*&lt;/font&gt;" style="text;html=1;align=center;verticalAlign=middle;resizable=0;points=[];autosize=1;strokeColor=none;fillColor=none;" parent="1" vertex="1">
          <mxGeometry x="1325.29" y="1548.5" width="40" height="30" as="geometry" />
        </mxCell>
        <mxCell id="6d00vNp0HRFiDjTd-FTX-74" value="&lt;font style=&quot;font-size: 18px;&quot;&gt;MODIFICATION TIME DIMENSION&lt;/font&gt;" style="text;html=1;align=center;verticalAlign=middle;resizable=0;points=[];autosize=1;strokeColor=none;fillColor=none;" parent="1" vertex="1">
          <mxGeometry x="826.57" y="1359" width="310" height="40" as="geometry" />
        </mxCell>
        <mxCell id="6d00vNp0HRFiDjTd-FTX-80" value="&lt;font style=&quot;font-size: 18px;&quot;&gt;CONTRIBUTOR DIMENSION&lt;/font&gt;" style="text;html=1;align=center;verticalAlign=middle;resizable=0;points=[];autosize=1;strokeColor=none;fillColor=none;" parent="1" vertex="1">
          <mxGeometry x="1989.28" y="1529.5" width="260" height="40" as="geometry" />
        </mxCell>
        <mxCell id="-UdpKEmKfV3WiR_RU4ag-1" value="&lt;div style=&quot;&quot;&gt;&lt;span style=&quot;caret-color: rgb(0, 0, 0); font-family: sans-serif; font-size: 13.12px; font-weight: 700; background-color: rgb(255, 255, 255);&quot;&gt;&amp;lt;&amp;lt;Level&amp;gt;&amp;gt;&lt;/span&gt;&lt;span style=&quot;background-color: initial;&quot;&gt;&lt;b&gt;&lt;br&gt;&lt;/b&gt;&lt;/span&gt;&lt;/div&gt;&lt;div style=&quot;&quot;&gt;&lt;font face=&quot;sans-serif&quot;&gt;&lt;span style=&quot;font-size: 13.12px; background-color: rgb(255, 255, 255);&quot;&gt;&lt;b&gt;Product&lt;/b&gt;&lt;/span&gt;&lt;/font&gt;&lt;b style=&quot;font-size: 13.12px; font-family: sans-serif;&quot;&gt;Version&lt;/b&gt;&lt;/div&gt;" style="rounded=0;whiteSpace=wrap;html=1;snapToPoint=1;points=[[0.1,0],[0.2,0],[0.3,0],[0.4,0],[0.5,0],[0.6,0],[0.7,0],[0.8,0],[0.9,0],[0,0.1],[0,0.3],[0,0.5],[0,0.7],[0,0.9],[0.1,1],[0.2,1],[0.3,1],[0.4,1],[0.5,1],[0.6,1],[0.7,1],[0.8,1],[0.9,1],[1,0.1],[1,0.3],[1,0.5],[1,0.7],[1,0.9]];fontFamily=Helvetica;fontSize=14;fillColor=none;align=center;" parent="1" vertex="1">
          <mxGeometry x="1220.29" y="2213" width="218.28" height="42" as="geometry" />
        </mxCell>
        <mxCell id="-UdpKEmKfV3WiR_RU4ag-2" value="+ version_id : java.lang.String" style="rounded=0;whiteSpace=wrap;html=1;snapToPoint=1;points=[[0.1,0],[0.2,0],[0.3,0],[0.4,0],[0.5,0],[0.6,0],[0.7,0],[0.8,0],[0.9,0],[0,0.1],[0,0.3],[0,0.5],[0,0.7],[0,0.9],[0.1,1],[0.2,1],[0.3,1],[0.4,1],[0.5,1],[0.6,1],[0.7,1],[0.8,1],[0.9,1],[1,0.1],[1,0.3],[1,0.5],[1,0.7],[1,0.9]];fontFamily=Helvetica;fontSize=14;fillColor=none;" parent="1" vertex="1">
          <mxGeometry x="1220.29" y="2255" width="218.28" height="48" as="geometry" />
        </mxCell>
        <mxCell id="-UdpKEmKfV3WiR_RU4ag-3" value="&lt;font style=&quot;font-size: 18px;&quot;&gt;VERSION DIMENSION&lt;/font&gt;" style="text;html=1;align=center;verticalAlign=middle;resizable=0;points=[];autosize=1;strokeColor=none;fillColor=none;" parent="1" vertex="1">
          <mxGeometry x="1071.71" y="2172" width="210" height="40" as="geometry" />
        </mxCell>
        <mxCell id="-UdpKEmKfV3WiR_RU4ag-5" value="&lt;div style=&quot;&quot;&gt;&lt;b&gt;&lt;span style=&quot;caret-color: rgb(0, 0, 0); font-family: sans-serif; font-size: 13.12px; background-color: rgb(255, 255, 255);&quot;&gt;&amp;lt;&amp;lt;Level&amp;gt;&amp;gt;&lt;/span&gt;&lt;span style=&quot;background-color: initial;&quot;&gt;&lt;br&gt;&lt;/span&gt;&lt;/b&gt;&lt;/div&gt;&lt;div style=&quot;&quot;&gt;&lt;b&gt;NutriScorePresence&lt;/b&gt;&lt;br&gt;&lt;/div&gt;" style="rounded=0;whiteSpace=wrap;html=1;snapToPoint=1;points=[[0.1,0],[0.2,0],[0.3,0],[0.4,0],[0.5,0],[0.6,0],[0.7,0],[0.8,0],[0.9,0],[0,0.1],[0,0.3],[0,0.5],[0,0.7],[0,0.9],[0.1,1],[0.2,1],[0.3,1],[0.4,1],[0.5,1],[0.6,1],[0.7,1],[0.8,1],[0.9,1],[1,0.1],[1,0.3],[1,0.5],[1,0.7],[1,0.9]];fontFamily=Helvetica;fontSize=14;fillColor=none;align=center;" parent="1" vertex="1">
          <mxGeometry x="1194.4299999999998" y="2405" width="270" height="42" as="geometry" />
        </mxCell>
        <mxCell id="-UdpKEmKfV3WiR_RU4ag-6" value="+&amp;nbsp;nutriscore_presence : java.lang.String" style="rounded=0;whiteSpace=wrap;html=1;snapToPoint=1;points=[[0.1,0],[0.2,0],[0.3,0],[0.4,0],[0.5,0],[0.6,0],[0.7,0],[0.8,0],[0.9,0],[0,0.1],[0,0.3],[0,0.5],[0,0.7],[0,0.9],[0.1,1],[0.2,1],[0.3,1],[0.4,1],[0.5,1],[0.6,1],[0.7,1],[0.8,1],[0.9,1],[1,0.1],[1,0.3],[1,0.5],[1,0.7],[1,0.9]];fontFamily=Helvetica;fontSize=14;fillColor=none;" parent="1" vertex="1">
          <mxGeometry x="1194.4299999999998" y="2447" width="270" height="48" as="geometry" />
        </mxCell>
        <mxCell id="-UdpKEmKfV3WiR_RU4ag-7" value="" style="endArrow=none;html=1;rounded=0;entryX=0.5;entryY=1;entryDx=0;entryDy=0;fontStyle=1;exitX=0.5;exitY=0;exitDx=0;exitDy=0;" parent="1" source="-UdpKEmKfV3WiR_RU4ag-5" target="-UdpKEmKfV3WiR_RU4ag-2" edge="1">
          <mxGeometry width="50" height="50" relative="1" as="geometry">
            <mxPoint x="1306.5700000000002" y="2304" as="sourcePoint" />
            <mxPoint x="1128.29" y="2407.75" as="targetPoint" />
          </mxGeometry>
        </mxCell>
        <mxCell id="-UdpKEmKfV3WiR_RU4ag-8" value="&lt;font style=&quot;font-size: 14px;&quot;&gt;1..1&lt;/font&gt;" style="text;html=1;align=center;verticalAlign=middle;resizable=0;points=[];autosize=1;strokeColor=none;fillColor=none;" parent="1" vertex="1">
          <mxGeometry x="1321.2900000000002" y="2380" width="50" height="30" as="geometry" />
        </mxCell>
        <mxCell id="-UdpKEmKfV3WiR_RU4ag-9" value="&lt;font style=&quot;font-size: 14px;&quot;&gt;0..*&lt;/font&gt;" style="text;html=1;align=center;verticalAlign=middle;resizable=0;points=[];autosize=1;strokeColor=none;fillColor=none;" parent="1" vertex="1">
          <mxGeometry x="1326.2900000000002" y="2300" width="40" height="30" as="geometry" />
        </mxCell>
        <mxCell id="-UdpKEmKfV3WiR_RU4ag-11" value="" style="endArrow=none;html=1;rounded=0;entryX=0.5;entryY=1;entryDx=0;entryDy=0;fontStyle=1;exitX=0.5;exitY=0;exitDx=0;exitDy=0;" parent="1" source="-UdpKEmKfV3WiR_RU4ag-1" target="6d00vNp0HRFiDjTd-FTX-50" edge="1">
          <mxGeometry width="50" height="50" relative="1" as="geometry">
            <mxPoint x="1525.71" y="1786.5" as="sourcePoint" />
            <mxPoint x="1525.71" y="1656.5" as="targetPoint" />
          </mxGeometry>
        </mxCell>
        <mxCell id="-UdpKEmKfV3WiR_RU4ag-12" value="&lt;font style=&quot;font-size: 14px;&quot;&gt;1..1&lt;/font&gt;" style="text;html=1;align=center;verticalAlign=middle;resizable=0;points=[];autosize=1;strokeColor=none;fillColor=none;" parent="1" vertex="1">
          <mxGeometry x="1320.2900000000002" y="2179" width="50" height="30" as="geometry" />
        </mxCell>
        <mxCell id="-UdpKEmKfV3WiR_RU4ag-13" value="&lt;font style=&quot;font-size: 14px;&quot;&gt;0..*&lt;/font&gt;" style="text;html=1;align=center;verticalAlign=middle;resizable=0;points=[];autosize=1;strokeColor=none;fillColor=none;" parent="1" vertex="1">
          <mxGeometry x="1326.2900000000002" y="1663" width="40" height="30" as="geometry" />
        </mxCell>
        <mxCell id="ZT_hO3a8LjF3KQZG9V5w-1" value="&lt;div style=&quot;&quot;&gt;&lt;div style=&quot;border-color: var(--border-color);&quot;&gt;&lt;b&gt;&amp;lt;&amp;lt;Level&amp;gt;&amp;gt;&lt;span style=&quot;border-color: var(--border-color); background-color: initial;&quot;&gt;&lt;span style=&quot;border-color: var(--border-color);&quot;&gt;&lt;br style=&quot;border-color: var(--border-color);&quot;&gt;&lt;/span&gt;&lt;/span&gt;&lt;/b&gt;&lt;/div&gt;&lt;div style=&quot;border-color: var(--border-color);&quot;&gt;&lt;font style=&quot;border-color: var(--border-color);&quot; face=&quot;sans-serif&quot;&gt;&lt;span style=&quot;border-color: var(--border-color); font-size: 13.12px; background-color: rgb(255, 255, 255);&quot;&gt;&lt;b style=&quot;border-color: var(--border-color);&quot;&gt;Pnns2&lt;/b&gt;&lt;/span&gt;&lt;/font&gt;&lt;/div&gt;&lt;/div&gt;" style="rounded=0;whiteSpace=wrap;html=1;snapToPoint=1;points=[[0.1,0],[0.2,0],[0.3,0],[0.4,0],[0.5,0],[0.6,0],[0.7,0],[0.8,0],[0.9,0],[0,0.1],[0,0.3],[0,0.5],[0,0.7],[0,0.9],[0.1,1],[0.2,1],[0.3,1],[0.4,1],[0.5,1],[0.6,1],[0.7,1],[0.8,1],[0.9,1],[1,0.1],[1,0.3],[1,0.5],[1,0.7],[1,0.9]];fontFamily=Helvetica;fontSize=14;fillColor=none;align=center;" parent="1" vertex="1">
          <mxGeometry x="1730.4299999999996" y="1873.5" width="199.14" height="42" as="geometry" />
        </mxCell>
        <mxCell id="ZT_hO3a8LjF3KQZG9V5w-2" value="+ pnns2 : java.lang.String" style="rounded=0;whiteSpace=wrap;html=1;snapToPoint=1;points=[[0.1,0],[0.2,0],[0.3,0],[0.4,0],[0.5,0],[0.6,0],[0.7,0],[0.8,0],[0.9,0],[0,0.1],[0,0.3],[0,0.5],[0,0.7],[0,0.9],[0.1,1],[0.2,1],[0.3,1],[0.4,1],[0.5,1],[0.6,1],[0.7,1],[0.8,1],[0.9,1],[1,0.1],[1,0.3],[1,0.5],[1,0.7],[1,0.9]];fontFamily=Helvetica;fontSize=14;fillColor=none;" parent="1" vertex="1">
          <mxGeometry x="1730.4299999999996" y="1915.5" width="199.14" height="48" as="geometry" />
        </mxCell>
        <mxCell id="ZT_hO3a8LjF3KQZG9V5w-3" value="&lt;font style=&quot;font-size: 18px;&quot;&gt;CATEGORY DIMENSION&lt;/font&gt;" style="text;html=1;align=center;verticalAlign=middle;resizable=0;points=[];autosize=1;strokeColor=none;fillColor=none;" parent="1" vertex="1">
          <mxGeometry x="1535.22" y="1832" width="230" height="40" as="geometry" />
        </mxCell>
        <mxCell id="ZT_hO3a8LjF3KQZG9V5w-4" value="&lt;div style=&quot;&quot;&gt;&lt;div style=&quot;border-color: var(--border-color);&quot;&gt;&lt;b&gt;&amp;lt;&amp;lt;Level&amp;gt;&amp;gt;&lt;span style=&quot;border-color: var(--border-color); background-color: initial;&quot;&gt;&lt;span style=&quot;border-color: var(--border-color);&quot;&gt;&lt;br style=&quot;border-color: var(--border-color);&quot;&gt;&lt;/span&gt;&lt;/span&gt;&lt;/b&gt;&lt;/div&gt;&lt;div style=&quot;border-color: var(--border-color);&quot;&gt;&lt;font style=&quot;border-color: var(--border-color);&quot; face=&quot;sans-serif&quot;&gt;&lt;span style=&quot;border-color: var(--border-color); font-size: 13.12px; background-color: rgb(255, 255, 255);&quot;&gt;&lt;b style=&quot;border-color: var(--border-color);&quot;&gt;Pnns1&lt;/b&gt;&lt;/span&gt;&lt;/font&gt;&lt;/div&gt;&lt;/div&gt;" style="rounded=0;whiteSpace=wrap;html=1;snapToPoint=1;points=[[0.1,0],[0.2,0],[0.3,0],[0.4,0],[0.5,0],[0.6,0],[0.7,0],[0.8,0],[0.9,0],[0,0.1],[0,0.3],[0,0.5],[0,0.7],[0,0.9],[0.1,1],[0.2,1],[0.3,1],[0.4,1],[0.5,1],[0.6,1],[0.7,1],[0.8,1],[0.9,1],[1,0.1],[1,0.3],[1,0.5],[1,0.7],[1,0.9]];fontFamily=Helvetica;fontSize=14;fillColor=none;align=center;" parent="1" vertex="1">
          <mxGeometry x="1400.4299999999996" y="1873.5" width="199.14" height="42" as="geometry" />
        </mxCell>
        <mxCell id="ZT_hO3a8LjF3KQZG9V5w-5" value="+ pnns1 : java.lang.String" style="rounded=0;whiteSpace=wrap;html=1;snapToPoint=1;points=[[0.1,0],[0.2,0],[0.3,0],[0.4,0],[0.5,0],[0.6,0],[0.7,0],[0.8,0],[0.9,0],[0,0.1],[0,0.3],[0,0.5],[0,0.7],[0,0.9],[0.1,1],[0.2,1],[0.3,1],[0.4,1],[0.5,1],[0.6,1],[0.7,1],[0.8,1],[0.9,1],[1,0.1],[1,0.3],[1,0.5],[1,0.7],[1,0.9]];fontFamily=Helvetica;fontSize=14;fillColor=none;" parent="1" vertex="1">
          <mxGeometry x="1400.4299999999996" y="1915.5" width="199.14" height="48" as="geometry" />
        </mxCell>
        <mxCell id="ZT_hO3a8LjF3KQZG9V5w-6" value="" style="endArrow=none;html=1;rounded=0;entryX=0;entryY=0.5;entryDx=0;entryDy=0;fontStyle=1;exitX=1;exitY=0.5;exitDx=0;exitDy=0;" parent="1" source="ZT_hO3a8LjF3KQZG9V5w-4" target="ZT_hO3a8LjF3KQZG9V5w-1" edge="1">
          <mxGeometry width="50" height="50" relative="1" as="geometry">
            <mxPoint x="1613.14" y="2041.38" as="sourcePoint" />
            <mxPoint x="1613.14" y="1939.38" as="targetPoint" />
          </mxGeometry>
        </mxCell>
        <mxCell id="ZT_hO3a8LjF3KQZG9V5w-7" value="&lt;font style=&quot;font-size: 14px;&quot;&gt;1..1&lt;/font&gt;" style="text;html=1;align=center;verticalAlign=middle;resizable=0;points=[];autosize=1;strokeColor=none;fillColor=none;" parent="1" vertex="1">
          <mxGeometry x="1589.57" y="1868.5" width="50" height="30" as="geometry" />
        </mxCell>
        <mxCell id="ZT_hO3a8LjF3KQZG9V5w-8" value="&lt;font style=&quot;font-size: 14px;&quot;&gt;0..*&lt;/font&gt;" style="text;html=1;align=center;verticalAlign=middle;resizable=0;points=[];autosize=1;strokeColor=none;fillColor=none;" parent="1" vertex="1">
          <mxGeometry x="1696.43" y="1868.5" width="40" height="30" as="geometry" />
        </mxCell>
        <mxCell id="ZT_hO3a8LjF3KQZG9V5w-53" value="&lt;div style=&quot;&quot;&gt;&lt;span style=&quot;caret-color: rgb(0, 0, 0); font-family: sans-serif; font-size: 13.12px; font-weight: 700; background-color: rgb(255, 255, 255);&quot;&gt;&amp;lt;&amp;lt;Cube&amp;gt;&amp;gt;&lt;/span&gt;&lt;span style=&quot;background-color: initial;&quot;&gt;&lt;b&gt;&lt;br&gt;&lt;/b&gt;&lt;/span&gt;&lt;/div&gt;&lt;div style=&quot;&quot;&gt;&lt;b&gt;OpenFoodFactsCube2&lt;/b&gt;&lt;br&gt;&lt;/div&gt;" style="rounded=0;whiteSpace=wrap;html=1;snapToPoint=1;points=[[0.1,0],[0.2,0],[0.3,0],[0.4,0],[0.5,0],[0.6,0],[0.7,0],[0.8,0],[0.9,0],[0,0.1],[0,0.3],[0,0.5],[0,0.7],[0,0.9],[0.1,1],[0.2,1],[0.3,1],[0.4,1],[0.5,1],[0.6,1],[0.7,1],[0.8,1],[0.9,1],[1,0.1],[1,0.3],[1,0.5],[1,0.7],[1,0.9]];fontFamily=Helvetica;fontSize=14;fillColor=none;align=center;" parent="1" vertex="1">
          <mxGeometry x="1781.85" y="2213" width="265.43" height="42" as="geometry" />
        </mxCell>
        <mxCell id="ZT_hO3a8LjF3KQZG9V5w-54" value="&lt;span style=&quot;border-color: var(--border-color);&quot;&gt;+ ContributorCount : int&lt;br&gt;+ NutritionScoreMean : int&lt;br&gt;+ NutritionScoreLetter : java.lang.String&lt;br style=&quot;border-color: var(--border-color);&quot;&gt;&lt;/span&gt;" style="rounded=0;whiteSpace=wrap;html=1;snapToPoint=1;points=[[0.1,0],[0.2,0],[0.3,0],[0.4,0],[0.5,0],[0.6,0],[0.7,0],[0.8,0],[0.9,0],[0,0.1],[0,0.3],[0,0.5],[0,0.7],[0,0.9],[0.1,1],[0.2,1],[0.3,1],[0.4,1],[0.5,1],[0.6,1],[0.7,1],[0.8,1],[0.9,1],[1,0.1],[1,0.3],[1,0.5],[1,0.7],[1,0.9]];fontFamily=Helvetica;fontSize=14;fillColor=none;" parent="1" vertex="1">
          <mxGeometry x="1781.85" y="2255" width="265.43" height="65" as="geometry" />
        </mxCell>
        <mxCell id="ZT_hO3a8LjF3KQZG9V5w-59" value="" style="rounded=0;whiteSpace=wrap;html=1;fillColor=none;dashed=1;" parent="1" vertex="1">
          <mxGeometry x="2172.5" y="2006" width="225" height="299" as="geometry" />
        </mxCell>
        <mxCell id="ZT_hO3a8LjF3KQZG9V5w-60" value="&lt;div style=&quot;&quot;&gt;&lt;span style=&quot;caret-color: rgb(0, 0, 0); font-family: sans-serif; font-size: 13.12px; background-color: rgb(255, 255, 255);&quot;&gt;&lt;b&gt;&amp;lt;&amp;lt;Level&amp;gt;&amp;gt;&lt;/b&gt;&lt;/span&gt;&lt;/div&gt;&lt;b&gt;YearModification&lt;/b&gt;" style="rounded=0;whiteSpace=wrap;html=1;snapToPoint=1;points=[[0.1,0],[0.2,0],[0.3,0],[0.4,0],[0.5,0],[0.6,0],[0.7,0],[0.8,0],[0.9,0],[0,0.1],[0,0.3],[0,0.5],[0,0.7],[0,0.9],[0.1,1],[0.2,1],[0.3,1],[0.4,1],[0.5,1],[0.6,1],[0.7,1],[0.8,1],[0.9,1],[1,0.1],[1,0.3],[1,0.5],[1,0.7],[1,0.9]];fontFamily=Helvetica;fontSize=14;fillColor=none;align=center;" parent="1" vertex="1">
          <mxGeometry x="2180" y="2010" width="210" height="42" as="geometry" />
        </mxCell>
        <mxCell id="ZT_hO3a8LjF3KQZG9V5w-61" value="&lt;span style=&quot;border-color: var(--border-color);&quot;&gt;+ date_modification&amp;nbsp;: datetime&lt;br style=&quot;border-color: var(--border-color);&quot;&gt;&lt;/span&gt;" style="rounded=0;whiteSpace=wrap;html=1;snapToPoint=1;points=[[0.1,0],[0.2,0],[0.3,0],[0.4,0],[0.5,0],[0.6,0],[0.7,0],[0.8,0],[0.9,0],[0,0.1],[0,0.3],[0,0.5],[0,0.7],[0,0.9],[0.1,1],[0.2,1],[0.3,1],[0.4,1],[0.5,1],[0.6,1],[0.7,1],[0.8,1],[0.9,1],[1,0.1],[1,0.3],[1,0.5],[1,0.7],[1,0.9]];fontFamily=Helvetica;fontSize=14;fillColor=none;" parent="1" vertex="1">
          <mxGeometry x="2180" y="2052" width="210" height="38" as="geometry" />
        </mxCell>
        <mxCell id="ZT_hO3a8LjF3KQZG9V5w-63" value="&lt;div style=&quot;&quot;&gt;&lt;b&gt;&lt;span style=&quot;caret-color: rgb(0, 0, 0); font-family: sans-serif; font-size: 13.12px; background-color: rgb(255, 255, 255);&quot;&gt;&amp;lt;&amp;lt;Level&amp;gt;&amp;gt;&lt;/span&gt;&lt;/b&gt;&lt;/div&gt;&lt;b style=&quot;border-color: var(--border-color);&quot;&gt;MonthModification&lt;/b&gt;" style="rounded=0;whiteSpace=wrap;html=1;snapToPoint=1;points=[[0.1,0],[0.2,0],[0.3,0],[0.4,0],[0.5,0],[0.6,0],[0.7,0],[0.8,0],[0.9,0],[0,0.1],[0,0.3],[0,0.5],[0,0.7],[0,0.9],[0.1,1],[0.2,1],[0.3,1],[0.4,1],[0.5,1],[0.6,1],[0.7,1],[0.8,1],[0.9,1],[1,0.1],[1,0.3],[1,0.5],[1,0.7],[1,0.9]];fontFamily=Helvetica;fontSize=14;fillColor=none;align=center;" parent="1" vertex="1">
          <mxGeometry x="2180" y="2213" width="210" height="42" as="geometry" />
        </mxCell>
        <mxCell id="ZT_hO3a8LjF3KQZG9V5w-64" value="&lt;span style=&quot;border-color: var(--border-color);&quot;&gt;&lt;span style=&quot;border-color: var(--border-color);&quot;&gt;+ date_modification&amp;nbsp;: datetime&lt;br style=&quot;border-color: var(--border-color);&quot;&gt;&lt;/span&gt;&lt;/span&gt;" style="rounded=0;whiteSpace=wrap;html=1;snapToPoint=1;points=[[0.1,0],[0.2,0],[0.3,0],[0.4,0],[0.5,0],[0.6,0],[0.7,0],[0.8,0],[0.9,0],[0,0.1],[0,0.3],[0,0.5],[0,0.7],[0,0.9],[0.1,1],[0.2,1],[0.3,1],[0.4,1],[0.5,1],[0.6,1],[0.7,1],[0.8,1],[0.9,1],[1,0.1],[1,0.3],[1,0.5],[1,0.7],[1,0.9]];fontFamily=Helvetica;fontSize=14;fillColor=none;" parent="1" vertex="1">
          <mxGeometry x="2180" y="2255" width="210" height="44.5" as="geometry" />
        </mxCell>
        <mxCell id="ZT_hO3a8LjF3KQZG9V5w-65" value="" style="endArrow=none;html=1;rounded=0;entryX=0.5;entryY=1;entryDx=0;entryDy=0;exitX=0.5;exitY=0;exitDx=0;exitDy=0;" parent="1" source="ZT_hO3a8LjF3KQZG9V5w-63" target="ZT_hO3a8LjF3KQZG9V5w-61" edge="1">
          <mxGeometry width="50" height="50" relative="1" as="geometry">
            <mxPoint x="2325.4300000000003" y="2195.5" as="sourcePoint" />
            <mxPoint x="2305.4300000000003" y="2225.5" as="targetPoint" />
          </mxGeometry>
        </mxCell>
        <mxCell id="ZT_hO3a8LjF3KQZG9V5w-66" value="&lt;font style=&quot;font-size: 14px;&quot;&gt;0..*&lt;/font&gt;" style="text;html=1;align=center;verticalAlign=middle;resizable=0;points=[];autosize=1;strokeColor=none;fillColor=none;" parent="1" vertex="1">
          <mxGeometry x="2280.1400000000003" y="2084" width="40" height="30" as="geometry" />
        </mxCell>
        <mxCell id="ZT_hO3a8LjF3KQZG9V5w-67" value="&lt;font style=&quot;font-size: 14px;&quot;&gt;1..1&lt;/font&gt;" style="text;html=1;align=center;verticalAlign=middle;resizable=0;points=[];autosize=1;strokeColor=none;fillColor=none;" parent="1" vertex="1">
          <mxGeometry x="2275.1400000000003" y="2189" width="50" height="30" as="geometry" />
        </mxCell>
        <mxCell id="ZT_hO3a8LjF3KQZG9V5w-70" value="&lt;font style=&quot;font-size: 18px;&quot;&gt;TIME DIMENSION&lt;/font&gt;" style="text;html=1;align=center;verticalAlign=middle;resizable=0;points=[];autosize=1;strokeColor=none;fillColor=none;" parent="1" vertex="1">
          <mxGeometry x="2200" y="1970" width="170" height="40" as="geometry" />
        </mxCell>
        <mxCell id="ZT_hO3a8LjF3KQZG9V5w-74" value="&lt;div style=&quot;&quot;&gt;&lt;div style=&quot;border-color: var(--border-color);&quot;&gt;&lt;b&gt;&amp;lt;&amp;lt;Level&amp;gt;&amp;gt;&lt;span style=&quot;border-color: var(--border-color); background-color: initial;&quot;&gt;&lt;span style=&quot;border-color: var(--border-color);&quot;&gt;&lt;br style=&quot;border-color: var(--border-color);&quot;&gt;&lt;/span&gt;&lt;/span&gt;&lt;/b&gt;&lt;/div&gt;&lt;div style=&quot;border-color: var(--border-color);&quot;&gt;&lt;font style=&quot;border-color: var(--border-color);&quot; face=&quot;sans-serif&quot;&gt;&lt;span style=&quot;border-color: var(--border-color); font-size: 13.12px; background-color: rgb(255, 255, 255);&quot;&gt;&lt;b style=&quot;border-color: var(--border-color);&quot;&gt;NovaGroup&lt;/b&gt;&lt;/span&gt;&lt;/font&gt;&lt;/div&gt;&lt;/div&gt;" style="rounded=0;whiteSpace=wrap;html=1;snapToPoint=1;points=[[0.1,0],[0.2,0],[0.3,0],[0.4,0],[0.5,0],[0.6,0],[0.7,0],[0.8,0],[0.9,0],[0,0.1],[0,0.3],[0,0.5],[0,0.7],[0,0.9],[0.1,1],[0.2,1],[0.3,1],[0.4,1],[0.5,1],[0.6,1],[0.7,1],[0.8,1],[0.9,1],[1,0.1],[1,0.3],[1,0.5],[1,0.7],[1,0.9]];fontFamily=Helvetica;fontSize=14;fillColor=none;align=center;" parent="1" vertex="1">
          <mxGeometry x="850" y="2213" width="229" height="42" as="geometry" />
        </mxCell>
        <mxCell id="ZT_hO3a8LjF3KQZG9V5w-75" value="+ nova_group : java.lang.String" style="rounded=0;whiteSpace=wrap;html=1;snapToPoint=1;points=[[0.1,0],[0.2,0],[0.3,0],[0.4,0],[0.5,0],[0.6,0],[0.7,0],[0.8,0],[0.9,0],[0,0.1],[0,0.3],[0,0.5],[0,0.7],[0,0.9],[0.1,1],[0.2,1],[0.3,1],[0.4,1],[0.5,1],[0.6,1],[0.7,1],[0.8,1],[0.9,1],[1,0.1],[1,0.3],[1,0.5],[1,0.7],[1,0.9]];fontFamily=Helvetica;fontSize=14;fillColor=none;" parent="1" vertex="1">
          <mxGeometry x="850" y="2255" width="229" height="48" as="geometry" />
        </mxCell>
        <mxCell id="ZT_hO3a8LjF3KQZG9V5w-76" value="" style="endArrow=none;html=1;rounded=0;entryX=0;entryY=0.5;entryDx=0;entryDy=0;fontStyle=1;exitX=1;exitY=0.5;exitDx=0;exitDy=0;" parent="1" source="ZT_hO3a8LjF3KQZG9V5w-74" target="-UdpKEmKfV3WiR_RU4ag-1" edge="1">
          <mxGeometry width="50" height="50" relative="1" as="geometry">
            <mxPoint x="1117.5700000000002" y="2441" as="sourcePoint" />
            <mxPoint x="1117.5700000000002" y="2317" as="targetPoint" />
          </mxGeometry>
        </mxCell>
        <mxCell id="ZT_hO3a8LjF3KQZG9V5w-77" value="&lt;font style=&quot;font-size: 14px;&quot;&gt;1..1&lt;/font&gt;" style="text;html=1;align=center;verticalAlign=middle;resizable=0;points=[];autosize=1;strokeColor=none;fillColor=none;" parent="1" vertex="1">
          <mxGeometry x="1069.0000000000002" y="2209" width="50" height="30" as="geometry" />
        </mxCell>
        <mxCell id="ZT_hO3a8LjF3KQZG9V5w-78" value="&lt;font style=&quot;font-size: 14px;&quot;&gt;0..*&lt;/font&gt;" style="text;html=1;align=center;verticalAlign=middle;resizable=0;points=[];autosize=1;strokeColor=none;fillColor=none;" parent="1" vertex="1">
          <mxGeometry x="1186.4300000000003" y="2210" width="40" height="30" as="geometry" />
        </mxCell>
        <mxCell id="ZT_hO3a8LjF3KQZG9V5w-80" value="" style="endArrow=none;html=1;rounded=0;entryX=0;entryY=0.5;entryDx=0;entryDy=0;fontStyle=1;exitX=1;exitY=0.5;exitDx=0;exitDy=0;" parent="1" source="-UdpKEmKfV3WiR_RU4ag-1" target="ZT_hO3a8LjF3KQZG9V5w-53" edge="1">
          <mxGeometry width="50" height="50" relative="1" as="geometry">
            <mxPoint x="1578.71" y="2223" as="sourcePoint" />
            <mxPoint x="1578.71" y="2115" as="targetPoint" />
          </mxGeometry>
        </mxCell>
        <mxCell id="ZT_hO3a8LjF3KQZG9V5w-81" value="&lt;font style=&quot;font-size: 14px;&quot;&gt;1..1&lt;/font&gt;" style="text;html=1;align=center;verticalAlign=middle;resizable=0;points=[];autosize=1;strokeColor=none;fillColor=none;" parent="1" vertex="1">
          <mxGeometry x="1463.4300000000003" y="2210" width="50" height="30" as="geometry" />
        </mxCell>
        <mxCell id="ZT_hO3a8LjF3KQZG9V5w-82" value="&lt;font style=&quot;font-size: 14px;&quot;&gt;0..*&lt;/font&gt;" style="text;html=1;align=center;verticalAlign=middle;resizable=0;points=[];autosize=1;strokeColor=none;fillColor=none;" parent="1" vertex="1">
          <mxGeometry x="1744.4300000000003" y="2208" width="40" height="30" as="geometry" />
        </mxCell>
        <mxCell id="ZT_hO3a8LjF3KQZG9V5w-83" value="" style="endArrow=none;html=1;rounded=0;exitX=1;exitY=0.5;exitDx=0;exitDy=0;entryX=0;entryY=0.5;entryDx=0;entryDy=0;fontStyle=1" parent="1" source="ZT_hO3a8LjF3KQZG9V5w-53" target="ZT_hO3a8LjF3KQZG9V5w-63" edge="1">
          <mxGeometry width="50" height="50" relative="1" as="geometry">
            <mxPoint x="2050.43" y="2120" as="sourcePoint" />
            <mxPoint x="2218.43" y="2120" as="targetPoint" />
          </mxGeometry>
        </mxCell>
        <mxCell id="ZT_hO3a8LjF3KQZG9V5w-84" value="&lt;font style=&quot;font-size: 14px;&quot;&gt;1..1&lt;/font&gt;" style="text;html=1;align=center;verticalAlign=middle;resizable=0;points=[];autosize=1;strokeColor=none;fillColor=none;" parent="1" vertex="1">
          <mxGeometry x="2127" y="2209" width="50" height="30" as="geometry" />
        </mxCell>
        <mxCell id="ZT_hO3a8LjF3KQZG9V5w-85" value="&lt;font style=&quot;font-size: 14px;&quot;&gt;0..*&lt;/font&gt;" style="text;html=1;align=center;verticalAlign=middle;resizable=0;points=[];autosize=1;strokeColor=none;fillColor=none;" parent="1" vertex="1">
          <mxGeometry x="2044.57" y="2209" width="40" height="30" as="geometry" />
        </mxCell>
        <mxCell id="ZT_hO3a8LjF3KQZG9V5w-87" value="&lt;font style=&quot;font-size: 14px;&quot;&gt;Dimension usage &lt;br&gt;&quot;Version&quot;&lt;/font&gt;" style="text;html=1;align=center;verticalAlign=middle;resizable=0;points=[];autosize=1;strokeColor=none;fillColor=none;" parent="1" vertex="1">
          <mxGeometry x="1199.29" y="1908.5" width="130" height="50" as="geometry" />
        </mxCell>
        <mxCell id="ZT_hO3a8LjF3KQZG9V5w-88" value="&lt;div style=&quot;&quot;&gt;&lt;div style=&quot;border-color: var(--border-color);&quot;&gt;&lt;b&gt;&amp;lt;&amp;lt;Level&amp;gt;&amp;gt;&lt;span style=&quot;border-color: var(--border-color); background-color: initial;&quot;&gt;&lt;span style=&quot;border-color: var(--border-color);&quot;&gt;&lt;br style=&quot;border-color: var(--border-color);&quot;&gt;&lt;/span&gt;&lt;/span&gt;&lt;/b&gt;&lt;/div&gt;&lt;div style=&quot;border-color: var(--border-color);&quot;&gt;&lt;font style=&quot;border-color: var(--border-color);&quot; face=&quot;sans-serif&quot;&gt;&lt;span style=&quot;border-color: var(--border-color); font-size: 13.12px; background-color: rgb(255, 255, 255);&quot;&gt;&lt;b style=&quot;border-color: var(--border-color);&quot;&gt;NutritionScoreFR&lt;/b&gt;&lt;/span&gt;&lt;/font&gt;&lt;/div&gt;&lt;/div&gt;" style="rounded=0;whiteSpace=wrap;html=1;snapToPoint=1;points=[[0.1,0],[0.2,0],[0.3,0],[0.4,0],[0.5,0],[0.6,0],[0.7,0],[0.8,0],[0.9,0],[0,0.1],[0,0.3],[0,0.5],[0,0.7],[0,0.9],[0.1,1],[0.2,1],[0.3,1],[0.4,1],[0.5,1],[0.6,1],[0.7,1],[0.8,1],[0.9,1],[1,0.1],[1,0.3],[1,0.5],[1,0.7],[1,0.9]];fontFamily=Helvetica;fontSize=14;fillColor=none;align=center;" parent="1" vertex="1">
          <mxGeometry x="1819.5699999999997" y="2423" width="190" height="42" as="geometry" />
        </mxCell>
        <mxCell id="ZT_hO3a8LjF3KQZG9V5w-89" value="+ nutrition_score_fr&amp;nbsp;: int" style="rounded=0;whiteSpace=wrap;html=1;snapToPoint=1;points=[[0.1,0],[0.2,0],[0.3,0],[0.4,0],[0.5,0],[0.6,0],[0.7,0],[0.8,0],[0.9,0],[0,0.1],[0,0.3],[0,0.5],[0,0.7],[0,0.9],[0.1,1],[0.2,1],[0.3,1],[0.4,1],[0.5,1],[0.6,1],[0.7,1],[0.8,1],[0.9,1],[1,0.1],[1,0.3],[1,0.5],[1,0.7],[1,0.9]];fontFamily=Helvetica;fontSize=14;fillColor=none;" parent="1" vertex="1">
          <mxGeometry x="1819.5699999999997" y="2465" width="190" height="48" as="geometry" />
        </mxCell>
        <mxCell id="ZT_hO3a8LjF3KQZG9V5w-94" value="&lt;font style=&quot;font-size: 14px;&quot;&gt;1..1&lt;/font&gt;" style="text;html=1;align=center;verticalAlign=middle;resizable=0;points=[];autosize=1;strokeColor=none;fillColor=none;" parent="1" vertex="1">
          <mxGeometry x="1873.15" y="2388.26" width="50" height="30" as="geometry" />
        </mxCell>
        <mxCell id="ZT_hO3a8LjF3KQZG9V5w-95" value="&lt;font style=&quot;font-size: 14px;&quot;&gt;0..*&lt;/font&gt;" style="text;html=1;align=center;verticalAlign=middle;resizable=0;points=[];autosize=1;strokeColor=none;fillColor=none;" parent="1" vertex="1">
          <mxGeometry x="1909.6399999999999" y="2188" width="40" height="30" as="geometry" />
        </mxCell>
        <mxCell id="ZT_hO3a8LjF3KQZG9V5w-96" value="&lt;font style=&quot;font-size: 18px;&quot;&gt;NUTRISCORE DIMENSION&lt;/font&gt;" style="text;html=1;align=center;verticalAlign=middle;resizable=0;points=[];autosize=1;strokeColor=none;fillColor=none;" parent="1" vertex="1">
          <mxGeometry x="1948.6399999999999" y="2380" width="250" height="40" as="geometry" />
        </mxCell>
        <mxCell id="ZT_hO3a8LjF3KQZG9V5w-100" value="&lt;div style=&quot;&quot;&gt;&lt;div style=&quot;border-color: var(--border-color);&quot;&gt;&lt;b&gt;&amp;lt;&amp;lt;Level&amp;gt;&amp;gt;&lt;span style=&quot;border-color: var(--border-color); background-color: initial;&quot;&gt;&lt;span style=&quot;border-color: var(--border-color);&quot;&gt;&lt;br style=&quot;border-color: var(--border-color);&quot;&gt;&lt;/span&gt;&lt;/span&gt;&lt;/b&gt;&lt;/div&gt;&lt;div style=&quot;border-color: var(--border-color);&quot;&gt;&lt;font style=&quot;border-color: var(--border-color);&quot; face=&quot;sans-serif&quot;&gt;&lt;span style=&quot;border-color: var(--border-color); font-size: 13.12px; background-color: rgb(255, 255, 255);&quot;&gt;&lt;b style=&quot;border-color: var(--border-color);&quot;&gt;NutriScoreLettre&lt;/b&gt;&lt;/span&gt;&lt;/font&gt;&lt;/div&gt;&lt;/div&gt;" style="rounded=0;whiteSpace=wrap;html=1;snapToPoint=1;points=[[0.1,0],[0.2,0],[0.3,0],[0.4,0],[0.5,0],[0.6,0],[0.7,0],[0.8,0],[0.9,0],[0,0.1],[0,0.3],[0,0.5],[0,0.7],[0,0.9],[0.1,1],[0.2,1],[0.3,1],[0.4,1],[0.5,1],[0.6,1],[0.7,1],[0.8,1],[0.9,1],[1,0.1],[1,0.3],[1,0.5],[1,0.7],[1,0.9]];fontFamily=Helvetica;fontSize=14;fillColor=none;align=center;" parent="1" vertex="1">
          <mxGeometry x="2135.14" y="2423" width="234.86" height="42" as="geometry" />
        </mxCell>
        <mxCell id="ZT_hO3a8LjF3KQZG9V5w-101" value="+ nutriscore_lettre : java.lang.String" style="rounded=0;whiteSpace=wrap;html=1;snapToPoint=1;points=[[0.1,0],[0.2,0],[0.3,0],[0.4,0],[0.5,0],[0.6,0],[0.7,0],[0.8,0],[0.9,0],[0,0.1],[0,0.3],[0,0.5],[0,0.7],[0,0.9],[0.1,1],[0.2,1],[0.3,1],[0.4,1],[0.5,1],[0.6,1],[0.7,1],[0.8,1],[0.9,1],[1,0.1],[1,0.3],[1,0.5],[1,0.7],[1,0.9]];fontFamily=Helvetica;fontSize=14;fillColor=none;" parent="1" vertex="1">
          <mxGeometry x="2135.14" y="2465" width="234.86" height="48" as="geometry" />
        </mxCell>
        <mxCell id="ZT_hO3a8LjF3KQZG9V5w-106" value="" style="endArrow=none;html=1;rounded=0;exitX=1;exitY=0.5;exitDx=0;exitDy=0;entryX=0;entryY=0.5;entryDx=0;entryDy=0;fontStyle=1" parent="1" source="ZT_hO3a8LjF3KQZG9V5w-88" target="ZT_hO3a8LjF3KQZG9V5w-100" edge="1">
          <mxGeometry width="50" height="50" relative="1" as="geometry">
            <mxPoint x="2070.14" y="2578" as="sourcePoint" />
            <mxPoint x="2256.14" y="2578" as="targetPoint" />
          </mxGeometry>
        </mxCell>
        <mxCell id="ZT_hO3a8LjF3KQZG9V5w-107" value="&lt;font style=&quot;font-size: 14px;&quot;&gt;1..1&lt;/font&gt;" style="text;html=1;align=center;verticalAlign=middle;resizable=0;points=[];autosize=1;strokeColor=none;fillColor=none;" parent="1" vertex="1">
          <mxGeometry x="2094.28" y="2420" width="50" height="30" as="geometry" />
        </mxCell>
        <mxCell id="ZT_hO3a8LjF3KQZG9V5w-109" value="&lt;font style=&quot;font-size: 14px;&quot;&gt;1..*&lt;/font&gt;" style="text;html=1;align=center;verticalAlign=middle;resizable=0;points=[];autosize=1;strokeColor=none;fillColor=none;" parent="1" vertex="1">
          <mxGeometry x="2004.5700000000002" y="2420" width="40" height="30" as="geometry" />
        </mxCell>
        <mxCell id="ZT_hO3a8LjF3KQZG9V5w-114" value="&lt;font style=&quot;font-size: 14px;&quot;&gt;Dimension usage &lt;br&gt;&quot;Version&quot;&lt;/font&gt;" style="text;html=1;align=center;verticalAlign=middle;resizable=0;points=[];autosize=1;strokeColor=none;fillColor=none;" parent="1" vertex="1">
          <mxGeometry x="1581.22" y="2190" width="130" height="50" as="geometry" />
        </mxCell>
        <mxCell id="ZT_hO3a8LjF3KQZG9V5w-115" value="&lt;font style=&quot;font-size: 14px;&quot;&gt;Dimension usage &lt;br&gt;&quot;Category&quot;&lt;/font&gt;" style="text;html=1;align=center;verticalAlign=middle;resizable=0;points=[];autosize=1;strokeColor=none;fillColor=none;" parent="1" vertex="1">
          <mxGeometry x="1703.29" y="2064" width="130" height="50" as="geometry" />
        </mxCell>
        <mxCell id="mf6khlwpMEUSQRAByZfA-2" value="&lt;font style=&quot;font-size: 14px;&quot;&gt;1..1&lt;/font&gt;" style="text;html=1;align=center;verticalAlign=middle;resizable=0;points=[];autosize=1;strokeColor=none;fillColor=none;" parent="1" vertex="1">
          <mxGeometry x="2080.0000000000005" y="1656" width="50" height="30" as="geometry" />
        </mxCell>
        <mxCell id="mf6khlwpMEUSQRAByZfA-3" value="&lt;font style=&quot;font-size: 14px;&quot;&gt;0..*&lt;/font&gt;" style="text;html=1;align=center;verticalAlign=middle;resizable=0;points=[];autosize=1;strokeColor=none;fillColor=none;" parent="1" vertex="1">
          <mxGeometry x="1878.15" y="2318" width="40" height="30" as="geometry" />
        </mxCell>
        <mxCell id="mf6khlwpMEUSQRAByZfA-9" value="&lt;font style=&quot;font-size: 14px;&quot;&gt;Dimension usage &lt;br&gt;&quot;Category&quot;&lt;/font&gt;" style="text;html=1;align=center;verticalAlign=middle;resizable=0;points=[];autosize=1;strokeColor=none;fillColor=none;" parent="1" vertex="1">
          <mxGeometry x="1585.2200000000003" y="1636" width="130" height="50" as="geometry" />
        </mxCell>
        <mxCell id="mf6khlwpMEUSQRAByZfA-14" value="" style="endArrow=none;html=1;rounded=0;fontStyle=1;entryX=0.5;entryY=1;entryDx=0;entryDy=0;exitX=0.5;exitY=0;exitDx=0;exitDy=0;" parent="1" source="ZT_hO3a8LjF3KQZG9V5w-53" target="6d00vNp0HRFiDjTd-FTX-54" edge="1">
          <mxGeometry width="50" height="50" relative="1" as="geometry">
            <mxPoint x="1970" y="2210" as="sourcePoint" />
            <mxPoint x="2081.0000000000005" y="1842.5" as="targetPoint" />
            <Array as="points">
              <mxPoint x="1915" y="2000" />
              <mxPoint x="2120" y="2000" />
            </Array>
          </mxGeometry>
        </mxCell>
        <mxCell id="mf6khlwpMEUSQRAByZfA-15" value="" style="endArrow=none;html=1;rounded=0;fontStyle=1;entryX=0.5;entryY=0;entryDx=0;entryDy=0;exitX=0.5;exitY=1;exitDx=0;exitDy=0;" parent="1" source="ZT_hO3a8LjF3KQZG9V5w-54" target="ZT_hO3a8LjF3KQZG9V5w-88" edge="1">
          <mxGeometry width="50" height="50" relative="1" as="geometry">
            <mxPoint x="1734.5700000000002" y="2796" as="sourcePoint" />
            <mxPoint x="1704.5700000000002" y="2636" as="targetPoint" />
            <Array as="points" />
          </mxGeometry>
        </mxCell>
        <mxCell id="mf6khlwpMEUSQRAByZfA-17" value="" style="endArrow=none;html=1;rounded=0;fontStyle=1;entryX=0.5;entryY=1;entryDx=0;entryDy=0;exitX=0.182;exitY=-0.003;exitDx=0;exitDy=0;exitPerimeter=0;" parent="1" source="ZT_hO3a8LjF3KQZG9V5w-53" target="ZT_hO3a8LjF3KQZG9V5w-2" edge="1">
          <mxGeometry width="50" height="50" relative="1" as="geometry">
            <mxPoint x="1820" y="2190" as="sourcePoint" />
            <mxPoint x="2170" y="1674" as="targetPoint" />
            <Array as="points" />
          </mxGeometry>
        </mxCell>
        <mxCell id="mf6khlwpMEUSQRAByZfA-18" value="&lt;font style=&quot;font-size: 14px;&quot;&gt;0..*&lt;/font&gt;" style="text;html=1;align=center;verticalAlign=middle;resizable=0;points=[];autosize=1;strokeColor=none;fillColor=none;" parent="1" vertex="1">
          <mxGeometry x="1825.4299999999996" y="2188" width="40" height="30" as="geometry" />
        </mxCell>
        <mxCell id="mf6khlwpMEUSQRAByZfA-19" value="&lt;font style=&quot;font-size: 14px;&quot;&gt;1..1&lt;/font&gt;" style="text;html=1;align=center;verticalAlign=middle;resizable=0;points=[];autosize=1;strokeColor=none;fillColor=none;" parent="1" vertex="1">
          <mxGeometry x="1820.4300000000003" y="1964.5" width="50" height="30" as="geometry" />
        </mxCell>
        <mxCell id="mf6khlwpMEUSQRAByZfA-20" value="" style="endArrow=none;html=1;rounded=0;entryX=1;entryY=0.5;entryDx=0;entryDy=0;fontStyle=1;exitX=0.5;exitY=0;exitDx=0;exitDy=0;" parent="1" source="ZT_hO3a8LjF3KQZG9V5w-1" target="6d00vNp0HRFiDjTd-FTX-50" edge="1">
          <mxGeometry width="50" height="50" relative="1" as="geometry">
            <mxPoint x="1339" y="2073" as="sourcePoint" />
            <mxPoint x="1339" y="1675" as="targetPoint" />
            <Array as="points">
              <mxPoint x="1830" y="1640" />
            </Array>
          </mxGeometry>
        </mxCell>
        <mxCell id="mf6khlwpMEUSQRAByZfA-21" value="&lt;font style=&quot;font-size: 14px;&quot;&gt;0..*&lt;/font&gt;" style="text;html=1;align=center;verticalAlign=middle;resizable=0;points=[];autosize=1;strokeColor=none;fillColor=none;" parent="1" vertex="1">
          <mxGeometry x="1438.5699999999997" y="1615.5" width="40" height="30" as="geometry" />
        </mxCell>
        <mxCell id="mf6khlwpMEUSQRAByZfA-22" value="&lt;font style=&quot;font-size: 14px;&quot;&gt;1..1&lt;/font&gt;" style="text;html=1;align=center;verticalAlign=middle;resizable=0;points=[];autosize=1;strokeColor=none;fillColor=none;" parent="1" vertex="1">
          <mxGeometry x="1820" y="1842" width="50" height="30" as="geometry" />
        </mxCell>
        <mxCell id="tPwLVcjKIBprA-vPx13l-3" value="" style="rounded=0;whiteSpace=wrap;html=1;fillColor=none;dashed=1;" parent="1" vertex="1">
          <mxGeometry x="872" y="1774" width="220" height="265.5" as="geometry" />
        </mxCell>
        <mxCell id="tPwLVcjKIBprA-vPx13l-4" value="&lt;div style=&quot;&quot;&gt;&lt;span style=&quot;caret-color: rgb(0, 0, 0); font-family: sans-serif; font-size: 13.12px; background-color: rgb(255, 255, 255);&quot;&gt;&lt;b&gt;&amp;lt;&amp;lt;Level&amp;gt;&amp;gt;&lt;/b&gt;&lt;/span&gt;&lt;/div&gt;&lt;b style=&quot;border-color: var(--border-color);&quot;&gt;YearCreation&lt;/b&gt;" style="rounded=0;whiteSpace=wrap;html=1;snapToPoint=1;points=[[0.1,0],[0.2,0],[0.3,0],[0.4,0],[0.5,0],[0.6,0],[0.7,0],[0.8,0],[0.9,0],[0,0.1],[0,0.3],[0,0.5],[0,0.7],[0,0.9],[0.1,1],[0.2,1],[0.3,1],[0.4,1],[0.5,1],[0.6,1],[0.7,1],[0.8,1],[0.9,1],[1,0.1],[1,0.3],[1,0.5],[1,0.7],[1,0.9]];fontFamily=Helvetica;fontSize=14;fillColor=none;align=center;" parent="1" vertex="1">
          <mxGeometry x="877" y="1954.5" width="210" height="42" as="geometry" />
        </mxCell>
        <mxCell id="tPwLVcjKIBprA-vPx13l-5" value="&lt;span style=&quot;border-color: var(--border-color);&quot;&gt;+ date_creation&amp;nbsp;: datetime&lt;br style=&quot;border-color: var(--border-color);&quot;&gt;&lt;/span&gt;" style="rounded=0;whiteSpace=wrap;html=1;snapToPoint=1;points=[[0.1,0],[0.2,0],[0.3,0],[0.4,0],[0.5,0],[0.6,0],[0.7,0],[0.8,0],[0.9,0],[0,0.1],[0,0.3],[0,0.5],[0,0.7],[0,0.9],[0.1,1],[0.2,1],[0.3,1],[0.4,1],[0.5,1],[0.6,1],[0.7,1],[0.8,1],[0.9,1],[1,0.1],[1,0.3],[1,0.5],[1,0.7],[1,0.9]];fontFamily=Helvetica;fontSize=14;fillColor=none;" parent="1" vertex="1">
          <mxGeometry x="877" y="1996.5" width="210" height="38" as="geometry" />
        </mxCell>
        <mxCell id="tPwLVcjKIBprA-vPx13l-6" value="" style="endArrow=none;html=1;rounded=0;exitX=1;exitY=0.5;exitDx=0;exitDy=0;entryX=0.2;entryY=1;entryDx=0;entryDy=0;" parent="1" source="tPwLVcjKIBprA-vPx13l-9" target="6d00vNp0HRFiDjTd-FTX-50" edge="1">
          <mxGeometry width="50" height="50" relative="1" as="geometry">
            <mxPoint x="1202.29" y="2086.5" as="sourcePoint" />
            <mxPoint x="1220" y="1901" as="targetPoint" />
            <Array as="points">
              <mxPoint x="1264" y="1801" />
            </Array>
          </mxGeometry>
        </mxCell>
        <mxCell id="tPwLVcjKIBprA-vPx13l-7" value="&lt;font style=&quot;font-size: 14px;&quot;&gt;0..*&lt;/font&gt;" style="text;html=1;align=center;verticalAlign=middle;resizable=0;points=[];autosize=1;strokeColor=none;fillColor=none;" parent="1" vertex="1">
          <mxGeometry x="1232" y="1660.5" width="40" height="30" as="geometry" />
        </mxCell>
        <mxCell id="tPwLVcjKIBprA-vPx13l-8" value="&lt;font style=&quot;font-size: 14px;&quot;&gt;1..1&lt;/font&gt;" style="text;html=1;align=center;verticalAlign=middle;resizable=0;points=[];autosize=1;strokeColor=none;fillColor=none;" parent="1" vertex="1">
          <mxGeometry x="1083.0000000000002" y="1776" width="50" height="30" as="geometry" />
        </mxCell>
        <mxCell id="tPwLVcjKIBprA-vPx13l-9" value="&lt;div style=&quot;&quot;&gt;&lt;div style=&quot;border-color: var(--border-color);&quot;&gt;&lt;b style=&quot;border-color: var(--border-color);&quot;&gt;&amp;lt;&amp;lt;Level&amp;gt;&amp;gt;&lt;/b&gt;&lt;/div&gt;&lt;b style=&quot;border-color: var(--border-color);&quot;&gt;MonthCreation&lt;/b&gt;&lt;br&gt;&lt;/div&gt;" style="rounded=0;whiteSpace=wrap;html=1;snapToPoint=1;points=[[0.1,0],[0.2,0],[0.3,0],[0.4,0],[0.5,0],[0.6,0],[0.7,0],[0.8,0],[0.9,0],[0,0.1],[0,0.3],[0,0.5],[0,0.7],[0,0.9],[0.1,1],[0.2,1],[0.3,1],[0.4,1],[0.5,1],[0.6,1],[0.7,1],[0.8,1],[0.9,1],[1,0.1],[1,0.3],[1,0.5],[1,0.7],[1,0.9]];fontFamily=Helvetica;fontSize=14;fillColor=none;align=center;" parent="1" vertex="1">
          <mxGeometry x="876.5700000000002" y="1779.5" width="210" height="42" as="geometry" />
        </mxCell>
        <mxCell id="tPwLVcjKIBprA-vPx13l-10" value="&lt;span style=&quot;border-color: var(--border-color);&quot;&gt;&lt;span style=&quot;border-color: var(--border-color);&quot;&gt;+ date_creation : datetime&lt;br style=&quot;border-color: var(--border-color);&quot;&gt;&lt;/span&gt;&lt;/span&gt;" style="rounded=0;whiteSpace=wrap;html=1;snapToPoint=1;points=[[0.1,0],[0.2,0],[0.3,0],[0.4,0],[0.5,0],[0.6,0],[0.7,0],[0.8,0],[0.9,0],[0,0.1],[0,0.3],[0,0.5],[0,0.7],[0,0.9],[0.1,1],[0.2,1],[0.3,1],[0.4,1],[0.5,1],[0.6,1],[0.7,1],[0.8,1],[0.9,1],[1,0.1],[1,0.3],[1,0.5],[1,0.7],[1,0.9]];fontFamily=Helvetica;fontSize=14;fillColor=none;" parent="1" vertex="1">
          <mxGeometry x="876.5700000000002" y="1821.5" width="210" height="44.5" as="geometry" />
        </mxCell>
        <mxCell id="tPwLVcjKIBprA-vPx13l-11" value="" style="endArrow=none;html=1;rounded=0;entryX=0.5;entryY=0;entryDx=0;entryDy=0;exitX=0.5;exitY=1;exitDx=0;exitDy=0;" parent="1" source="tPwLVcjKIBprA-vPx13l-10" target="tPwLVcjKIBprA-vPx13l-4" edge="1">
          <mxGeometry width="50" height="50" relative="1" as="geometry">
            <mxPoint x="1022.4300000000001" y="1906" as="sourcePoint" />
            <mxPoint x="1002.4300000000001" y="1936" as="targetPoint" />
          </mxGeometry>
        </mxCell>
        <mxCell id="tPwLVcjKIBprA-vPx13l-12" value="&lt;font style=&quot;font-size: 14px;&quot;&gt;0..*&lt;/font&gt;" style="text;html=1;align=center;verticalAlign=middle;resizable=0;points=[];autosize=1;strokeColor=none;fillColor=none;" parent="1" vertex="1">
          <mxGeometry x="977.4300000000001" y="1929" width="40" height="30" as="geometry" />
        </mxCell>
        <mxCell id="tPwLVcjKIBprA-vPx13l-13" value="&lt;font style=&quot;font-size: 14px;&quot;&gt;1..1&lt;/font&gt;" style="text;html=1;align=center;verticalAlign=middle;resizable=0;points=[];autosize=1;strokeColor=none;fillColor=none;" parent="1" vertex="1">
          <mxGeometry x="971.4300000000001" y="1860.5" width="50" height="30" as="geometry" />
        </mxCell>
        <mxCell id="tPwLVcjKIBprA-vPx13l-14" value="&lt;font style=&quot;font-size: 18px;&quot;&gt;CREATION TIME DIMENSION&lt;/font&gt;" style="text;html=1;align=center;verticalAlign=middle;resizable=0;points=[];autosize=1;strokeColor=none;fillColor=none;" parent="1" vertex="1">
          <mxGeometry x="847" y="1738.5" width="270" height="40" as="geometry" />
        </mxCell>
        <mxCell id="2kV4Sq75wRyNiwIaQ6NF-2" value="&lt;font style=&quot;font-size: 14px;&quot;&gt;Dimension usage &lt;br&gt;&quot;Contributor&quot;&lt;/font&gt;" style="text;html=1;align=center;verticalAlign=middle;resizable=0;points=[];autosize=1;strokeColor=none;fillColor=none;" parent="1" vertex="1">
          <mxGeometry x="1654.0000000000005" y="1548.5" width="130" height="50" as="geometry" />
        </mxCell>
        <mxCell id="2kV4Sq75wRyNiwIaQ6NF-4" value="&lt;font style=&quot;font-size: 14px;&quot;&gt;Dimension usage &lt;br&gt;&quot;Contributor&quot;&lt;/font&gt;" style="text;html=1;align=center;verticalAlign=middle;resizable=0;points=[];autosize=1;strokeColor=none;fillColor=none;" parent="1" vertex="1">
          <mxGeometry x="2117.2800000000007" y="1797" width="130" height="50" as="geometry" />
        </mxCell>
      </root>
    </mxGraphModel>
  </diagram>
</mxfile>
